<svg xmlns="http://www.w3.org/2000/svg" width="16" height="16" viewBox="0 0 16 16">
    <g fill="none" fill-rule="evenodd">
        <g fill="#E84640">
            <path d="M8 0c4.418 0 8 3.582 8 8s-3.582 8-8 8-8-3.582-8-8 3.582-8 8-8zm0 2C4.687 2 2 4.686 2 8c0 3.313 2.687 6 6 6s6-2.687 6-6c0-3.314-2.687-6-6-6zm2.121 2.464l1.414 1.414L9.414 8l2.121 2.121-1.414 1.414L8 9.415l-2.121 2.12-1.414-1.414 2.121-2.12-2.121-2.123 1.414-1.414L8 6.585l2.121-2.12z" transform="translate(0 -2) translate(0 2)"/>
        </g>
    </g>
</svg>
